<svg xmlns="http://www.w3.org/2000/svg" viewBox="0 0 1280 593" preserveAspectRatio="xMidYMid" width="1280" height="593" style="shape-rendering: auto; display: block; background: rgb(26, 27, 32);"><g data-idx="1"><path stroke-width="2" stroke-opacity="0" stroke="rgb(46, 230, 144)" fill="none" d="M 0 415.849 C 213 415.849 427 332.151 640 332.151 C 853 332.151 1067 415.849 1280 415.849 C 1493 415.849 1707 332.151 1920 332.151 C 2133 332.151 2347 415.849 2560 415.849" data-idx="2" transform="matrix(1,0,0,1,-729.5999755859375,0)">
  
  
  
</path><path stroke-width="2" stroke-opacity="0" stroke="rgb(48, 231, 142)" fill="none" d="M 0 415.397 C 213 415.397 427 332.603 640 332.603 C 853 332.603 1067 415.397 1280 415.397 C 1493 415.397 1707 332.603 1920 332.603 C 2133 332.603 2347 415.397 2560 415.397" data-idx="6" transform="matrix(1,0,0,1,-736.426513671875,0)">
  
  
  
</path><path stroke-width="2" stroke-opacity="0" stroke="rgb(51, 231, 141)" fill="none" d="M 0 414.905 C 213 414.905 427 333.095 640 333.095 C 853 333.095 1067 414.905 1280 414.905 C 1493 414.905 1707 333.095 1920 333.095 C 2133 333.095 2347 414.905 2560 414.905" data-idx="10" transform="matrix(1,0,0,1,-743.2531127929688,0)">
  
  
  
</path><path stroke-width="2" stroke-opacity="0" stroke="rgb(54, 232, 139)" fill="none" d="M 0 414.371 C 213 414.371 427 333.629 640 333.629 C 853 333.629 1067 414.371 1280 414.371 C 1493 414.371 1707 333.629 1920 333.629 C 2133 333.629 2347 414.371 2560 414.371" data-idx="14" transform="matrix(1,0,0,1,-750.0800170898438,0)">
  
  
  
</path><path stroke-width="2" stroke-opacity="0" stroke="rgb(57, 233, 137)" fill="none" d="M 0 413.793 C 213 413.793 427 334.207 640 334.207 C 853 334.207 1067 413.793 1280 413.793 C 1493 413.793 1707 334.207 1920 334.207 C 2133 334.207 2347 413.793 2560 413.793" data-idx="18" transform="matrix(1,0,0,1,-756.9066162109375,0)">
  
  
  
</path><path stroke-width="2" stroke-opacity="0" stroke="rgb(60, 233, 134)" fill="none" d="M 0 413.172 C 213 413.172 427 334.828 640 334.828 C 853 334.828 1067 413.172 1280 413.172 C 1493 413.172 1707 334.828 1920 334.828 C 2133 334.828 2347 413.172 2560 413.172" data-idx="22" transform="matrix(1,0,0,1,-763.733154296875,0)">
  
  
  
</path><path stroke-width="2" stroke-opacity="0" stroke="rgb(63, 234, 132)" fill="none" d="M 0 412.504 C 213 412.504 427 335.496 640 335.496 C 853 335.496 1067 412.504 1280 412.504 C 1493 412.504 1707 335.496 1920 335.496 C 2133 335.496 2347 412.504 2560 412.504" data-idx="26" transform="matrix(1,0,0,1,-770.5599975585938,0)">
  
  
  
</path><path stroke-width="2" stroke-opacity="0" stroke="rgb(67, 235, 129)" fill="none" d="M 0 411.79 C 213 411.79 427 336.21 640 336.21 C 853 336.21 1067 411.79 1280 411.79 C 1493 411.79 1707 336.21 1920 336.21 C 2133 336.21 2347 411.79 2560 411.79" data-idx="30" transform="matrix(1,0,0,1,-777.3865356445312,0)">
  
  
  
</path><path stroke-width="2" stroke-opacity="0" stroke="rgb(71, 235, 127)" fill="none" d="M 0 411.028 C 213 411.028 427 336.972 640 336.972 C 853 336.972 1067 411.028 1280 411.028 C 1493 411.028 1707 336.972 1920 336.972 C 2133 336.972 2347 411.028 2560 411.028" data-idx="34" transform="matrix(1,0,0,1,-784.213134765625,0)">
  
  
  
</path><path stroke-width="2" stroke-opacity="0" stroke="rgb(75, 236, 124)" fill="none" d="M 0 410.217 C 213 410.217 427 337.783 640 337.783 C 853 337.783 1067 410.217 1280 410.217 C 1493 410.217 1707 337.783 1920 337.783 C 2133 337.783 2347 410.217 2560 410.217" data-idx="38" transform="matrix(1,0,0,1,-791.0399780273438,0)">
  
  
  
</path><path stroke-width="2" stroke-opacity="0" stroke="rgb(79, 237, 121)" fill="none" d="M 0 409.355 C 213 409.355 427 338.645 640 338.645 C 853 338.645 1067 409.355 1280 409.355 C 1493 409.355 1707 338.645 1920 338.645 C 2133 338.645 2347 409.355 2560 409.355" data-idx="42" transform="matrix(1,0,0,1,-797.8665771484375,0)">
  
  
  
</path><path stroke-width="2" stroke-opacity="0" stroke="rgb(83, 238, 119)" fill="none" d="M 0 408.442 C 213 408.442 427 339.558 640 339.558 C 853 339.558 1067 408.442 1280 408.442 C 1493 408.442 1707 339.558 1920 339.558 C 2133 339.558 2347 408.442 2560 408.442" data-idx="46" transform="matrix(1,0,0,1,-804.693115234375,0)">
  
  
  
</path><path stroke-width="2" stroke-opacity="0" stroke="rgb(87, 238, 116)" fill="none" d="M 0 407.477 C 213 407.477 427 340.523 640 340.523 C 853 340.523 1067 407.477 1280 407.477 C 1493 407.477 1707 340.523 1920 340.523 C 2133 340.523 2347 407.477 2560 407.477" data-idx="50" transform="matrix(1,0,0,1,-811.52001953125,0)">
  
  
  
</path><path stroke-width="2" stroke-opacity="0" stroke="rgb(91, 239, 113)" fill="none" d="M 0 406.458 C 213 406.458 427 341.542 640 341.542 C 853 341.542 1067 406.458 1280 406.458 C 1493 406.458 1707 341.542 1920 341.542 C 2133 341.542 2347 406.458 2560 406.458" data-idx="54" transform="matrix(1,0,0,1,-818.3465576171875,0)">
  
  
  
</path><path stroke-width="2" stroke-opacity="0" stroke="rgb(94, 240, 111)" fill="none" d="M 0 405.385 C 213 405.385 427 342.615 640 342.615 C 853 342.615 1067 405.385 1280 405.385 C 1493 405.385 1707 342.615 1920 342.615 C 2133 342.615 2347 405.385 2560 405.385" data-idx="58" transform="matrix(1,0,0,1,-825.173095703125,0)">
  
  
  
</path><path stroke-width="2" stroke-opacity="0" stroke="rgb(98, 240, 108)" fill="none" d="M 0 404.258 C 213 404.258 427 343.742 640 343.742 C 853 343.742 1067 404.258 1280 404.258 C 1493 404.258 1707 343.742 1920 343.742 C 2133 343.742 2347 404.258 2560 404.258" data-idx="62" transform="matrix(1,0,0,1,-832,0)">
  
  
  
</path><path stroke-width="2" stroke-opacity="0" stroke="rgb(101, 241, 106)" fill="none" d="M 0 403.074 C 213 403.074 427 344.926 640 344.926 C 853 344.926 1067 403.074 1280 403.074 C 1493 403.074 1707 344.926 1920 344.926 C 2133 344.926 2347 403.074 2560 403.074" data-idx="66" transform="matrix(1,0,0,1,-838.8265380859375,0)">
  
  
  
</path><path stroke-width="2" stroke-opacity="0" stroke="rgb(105, 242, 104)" fill="none" d="M 0 401.835 C 213 401.835 427 346.165 640 346.165 C 853 346.165 1067 401.835 1280 401.835 C 1493 401.835 1707 346.165 1920 346.165 C 2133 346.165 2347 401.835 2560 401.835" data-idx="70" transform="matrix(1,0,0,1,-845.6531372070312,0)">
  
  
  
</path><path stroke-width="2" stroke-opacity="0" stroke="rgb(108, 242, 101)" fill="none" d="M 0 400.541 C 213 400.541 427 347.459 640 347.459 C 853 347.459 1067 400.541 1280 400.541 C 1493 400.541 1707 347.459 1920 347.459 C 2133 347.459 2347 400.541 2560 400.541" data-idx="74" transform="matrix(1,0,0,1,-852.47998046875,0)">
  
  
  
</path><path stroke-width="2" stroke-opacity="0" stroke="rgb(110, 243, 100)" fill="none" d="M 0 399.19 C 213 399.19 427 348.81 640 348.81 C 853 348.81 1067 399.19 1280 399.19 C 1493 399.19 1707 348.81 1920 348.81 C 2133 348.81 2347 399.19 2560 399.19" data-idx="78" transform="matrix(1,0,0,1,-859.3065795898438,0)">
  
  
  
</path><path stroke-width="2" stroke-opacity="0" stroke="rgb(113, 243, 98)" fill="none" d="M 0 397.784 C 213 397.784 427 350.216 640 350.216 C 853 350.216 1067 397.784 1280 397.784 C 1493 397.784 1707 350.216 1920 350.216 C 2133 350.216 2347 397.784 2560 397.784" data-idx="82" transform="matrix(1,0,0,1,-866.1331176757812,0)">
  
  
  
</path><path stroke-width="2" stroke-opacity="0" stroke="rgb(115, 244, 96)" fill="none" d="M 0 396.324 C 213 396.324 427 351.676 640 351.676 C 853 351.676 1067 396.324 1280 396.324 C 1493 396.324 1707 351.676 1920 351.676 C 2133 351.676 2347 396.324 2560 396.324" data-idx="86" transform="matrix(1,0,0,1,-872.9599609375,0)">
  
  
  
</path><path stroke-width="2" stroke-opacity="0" stroke="rgb(117, 244, 95)" fill="none" d="M 0 394.81 C 213 394.81 427 353.19 640 353.19 C 853 353.19 1067 394.81 1280 394.81 C 1493 394.81 1707 353.19 1920 353.19 C 2133 353.19 2347 394.81 2560 394.81" data-idx="90" transform="matrix(1,0,0,1,-879.7864990234375,0)">
  
  
  
</path><path stroke-width="2" stroke-opacity="0" stroke="rgb(119, 244, 94)" fill="none" d="M 0 393.244 C 213 393.244 427 354.756 640 354.756 C 853 354.756 1067 393.244 1280 393.244 C 1493 393.244 1707 354.756 1920 354.756 C 2133 354.756 2347 393.244 2560 393.244" data-idx="94" transform="matrix(1,0,0,1,-886.6130981445312,0)">
  
  
  
</path><path stroke-width="2" stroke-opacity="0" stroke="rgb(120, 245, 93)" fill="none" d="M 0 391.629 C 213 391.629 427 356.371 640 356.371 C 853 356.371 1067 391.629 1280 391.629 C 1493 391.629 1707 356.371 1920 356.371 C 2133 356.371 2347 391.629 2560 391.629" data-idx="98" transform="matrix(1,0,0,1,-893.4400024414062,0)">
  
  
  
</path><path stroke-width="2" stroke-opacity="0" stroke="rgb(122, 245, 92)" fill="none" d="M 0 389.967 C 213 389.967 427 358.033 640 358.033 C 853 358.033 1067 389.967 1280 389.967 C 1493 389.967 1707 358.033 1920 358.033 C 2133 358.033 2347 389.967 2560 389.967" data-idx="102" transform="matrix(1,0,0,1,-900.2666015625,0)">
  
  
  
</path><path stroke-width="2" stroke-opacity="0" stroke="rgb(123, 245, 91)" fill="none" d="M 0 388.26 C 213 388.26 427 359.74 640 359.74 C 853 359.74 1067 388.26 1280 388.26 C 1493 388.26 1707 359.74 1920 359.74 C 2133 359.74 2347 388.26 2560 388.26" data-idx="106" transform="matrix(1,0,0,1,-907.0931396484375,0)">
  
  
  
</path><path stroke-width="2" stroke-opacity="0" stroke="rgb(124, 245, 90)" fill="none" d="M 0 386.512 C 213 386.512 427 361.488 640 361.488 C 853 361.488 1067 386.512 1280 386.512 C 1493 386.512 1707 361.488 1920 361.488 C 2133 361.488 2347 386.512 2560 386.512" data-idx="110" transform="matrix(1,0,0,1,-913.9199829101562,0)">
  
  
  
</path><path stroke-width="2" stroke-opacity="0" stroke="rgb(125, 246, 89)" fill="none" d="M 0 384.728 C 213 384.728 427 363.272 640 363.272 C 853 363.272 1067 384.728 1280 384.728 C 1493 384.728 1707 363.272 1920 363.272 C 2133 363.272 2347 384.728 2560 384.728" data-idx="114" transform="matrix(1,0,0,1,-920.7465209960938,0)">
  
  
  
</path><path stroke-width="2" stroke-opacity="0" stroke="rgb(126, 246, 89)" fill="none" d="M 0 382.911 C 213 382.911 427 365.089 640 365.089 C 853 365.089 1067 382.911 1280 382.911 C 1493 382.911 1707 365.089 1920 365.089 C 2133 365.089 2347 382.911 2560 382.911" data-idx="118" transform="matrix(1,0,0,1,-927.5731201171875,0)">
  
  
  
</path><path stroke-width="2" stroke-opacity="0" stroke="rgb(126, 246, 89)" fill="none" d="M 0 381.067 C 213 381.067 427 366.933 640 366.933 C 853 366.933 1067 381.067 1280 381.067 C 1493 381.067 1707 366.933 1920 366.933 C 2133 366.933 2347 381.067 2560 381.067" data-idx="122" transform="matrix(1,0,0,1,-934.4000244140625,0)">
  
  
  
</path><path stroke-width="2" stroke-opacity="0" stroke="rgb(127, 246, 88)" fill="none" d="M 0 379.2 C 213 379.2 427 368.8 640 368.8 C 853 368.8 1067 379.2 1280 379.2 C 1493 379.2 1707 368.8 1920 368.8 C 2133 368.8 2347 379.2 2560 379.2" data-idx="126" transform="matrix(1,0,0,1,-941.2265625,0)">
  
  
  
</path><path stroke-width="2" stroke-opacity="0" stroke="rgb(127, 246, 88)" fill="none" d="M 0 377.317 C 213 377.317 427 370.683 640 370.683 C 853 370.683 1067 377.317 1280 377.317 C 1493 377.317 1707 370.683 1920 370.683 C 2133 370.683 2347 377.317 2560 377.317" data-idx="130" transform="matrix(1,0,0,1,-948.0531005859375,0)">
  
  
  
</path><path stroke-width="2" stroke-opacity="0" stroke="rgb(127, 246, 88)" fill="none" d="M 0 375.424 C 213 375.424 427 372.576 640 372.576 C 853 372.576 1067 375.424 1280 375.424 C 1493 375.424 1707 372.576 1920 372.576 C 2133 372.576 2347 375.424 2560 375.424" data-idx="134" transform="matrix(1,0,0,1,-954.8800048828125,0)">
  
  
  
</path><path stroke-width="2" stroke-opacity="0" stroke="rgb(127, 246, 88)" fill="none" d="M 0 373.525 C 213 373.525 427 374.475 640 374.475 C 853 374.475 1067 373.525 1280 373.525 C 1493 373.525 1707 374.475 1920 374.475 C 2133 374.475 2347 373.525 2560 373.525" data-idx="138" transform="matrix(1,0,0,1,-961.70654296875,0)">
  
  
  
</path><path stroke-width="2" stroke-opacity="0" stroke="rgb(127, 246, 88)" fill="none" d="M 0 371.629 C 213 371.629 427 376.371 640 376.371 C 853 376.371 1067 371.629 1280 371.629 C 1493 371.629 1707 376.371 1920 376.371 C 2133 376.371 2347 371.629 2560 371.629" data-idx="142" transform="matrix(1,0,0,1,-968.5330810546875,0)">
  
  
  
</path><path stroke-width="2" stroke-opacity="0" stroke="rgb(127, 245, 88)" fill="none" d="M 0 369.74 C 213 369.74 427 378.26 640 378.26 C 853 378.26 1067 369.74 1280 369.74 C 1493 369.74 1707 378.26 1920 378.26 C 2133 378.26 2347 369.74 2560 369.74" data-idx="146" transform="matrix(1,0,0,1,-975.3600463867188,0)">
  
  
  
</path><path stroke-width="2" stroke-opacity="0" stroke="rgb(127, 245, 89)" fill="none" d="M 0 367.864 C 213 367.864 427 380.136 640 380.136 C 853 380.136 1067 367.864 1280 367.864 C 1493 367.864 1707 380.136 1920 380.136 C 2133 380.136 2347 367.864 2560 367.864" data-idx="150" transform="matrix(1,0,0,1,-982.1865844726562,0)">
  
  
  
</path><path stroke-width="2" stroke-opacity="0" stroke="rgb(127, 244, 89)" fill="none" d="M 0 366.008 C 213 366.008 427 381.992 640 381.992 C 853 381.992 1067 366.008 1280 366.008 C 1493 366.008 1707 381.992 1920 381.992 C 2133 381.992 2347 366.008 2560 366.008" data-idx="154" transform="matrix(1,0,0,1,-989.0131225585938,0)">
  
  
  
</path><path stroke-width="2" stroke-opacity="0" stroke="rgb(126, 243, 90)" fill="none" d="M 0 364.177 C 213 364.177 427 383.823 640 383.823 C 853 383.823 1067 364.177 1280 364.177 C 1493 364.177 1707 383.823 1920 383.823 C 2133 383.823 2347 364.177 2560 364.177" data-idx="158" transform="matrix(1,0,0,1,-995.8399658203125,0)">
  
  
  
</path><path stroke-width="2" stroke-opacity="0" stroke="rgb(126, 242, 91)" fill="none" d="M 0 362.376 C 213 362.376 427 385.624 640 385.624 C 853 385.624 1067 362.376 1280 362.376 C 1493 362.376 1707 385.624 1920 385.624 C 2133 385.624 2347 362.376 2560 362.376" data-idx="162" transform="matrix(1,0,0,1,-1002.6665649414062,0)">
  
  
  
</path><path stroke-width="2" stroke-opacity="0" stroke="rgb(126, 240, 92)" fill="none" d="M 0 360.609 C 213 360.609 427 387.391 640 387.391 C 853 387.391 1067 360.609 1280 360.609 C 1493 360.609 1707 387.391 1920 387.391 C 2133 387.391 2347 360.609 2560 360.609" data-idx="166" transform="matrix(1,0,0,1,-1009.4931030273438,0)">
  
  
  
</path><path stroke-width="2" stroke-opacity="0" stroke="rgb(126, 238, 93)" fill="none" d="M 0 358.882 C 213 358.882 427 389.118 640 389.118 C 853 389.118 1067 358.882 1280 358.882 C 1493 358.882 1707 389.118 1920 389.118 C 2133 389.118 2347 358.882 2560 358.882" data-idx="170" transform="matrix(1,0,0,1,-1016.320068359375,0)">
  
  
  
</path><path stroke-width="2" stroke-opacity="0" stroke="rgb(125, 236, 95)" fill="none" d="M 0 357.196 C 213 357.196 427 390.804 640 390.804 C 853 390.804 1067 357.196 1280 357.196 C 1493 357.196 1707 390.804 1920 390.804 C 2133 390.804 2347 357.196 2560 357.196" data-idx="174" transform="matrix(1,0,0,1,-1023.1466064453125,0)">
  
  
  
</path><path stroke-width="2" stroke-opacity="0" stroke="rgb(125, 233, 97)" fill="none" d="M 0 355.557 C 213 355.557 427 392.443 640 392.443 C 853 392.443 1067 355.557 1280 355.557 C 1493 355.557 1707 392.443 1920 392.443 C 2133 392.443 2347 355.557 2560 355.557" data-idx="178" transform="matrix(1,0,0,1,-1029.97314453125,0)">
  
  
  
</path><path stroke-width="2" stroke-opacity="0" stroke="rgb(124, 230, 99)" fill="none" d="M 0 353.967 C 213 353.967 427 394.034 640 394.034 C 853 394.034 1067 353.967 1280 353.967 C 1493 353.967 1707 394.034 1920 394.034 C 2133 394.034 2347 353.967 2560 353.967" data-idx="182" transform="matrix(1,0,0,1,-1036.800048828125,0)">
  
  
  
</path><path stroke-width="2" stroke-opacity="0.022727272727272728" stroke="rgb(124, 227, 101)" fill="none" d="M 0 352.427 C 213 352.427 427 395.573 640 395.573 C 853 395.573 1067 352.427 1280 352.427 C 1493 352.427 1707 395.573 1920 395.573 C 2133 395.573 2347 352.427 2560 352.427" data-idx="186" transform="matrix(1,0,0,1,-1043.6265869140625,0)">
  
  
  
</path><path stroke-width="2" stroke-opacity="0.045454545454545456" stroke="rgb(123, 223, 103)" fill="none" d="M 0 350.939 C 213 350.939 427 397.061 640 397.061 C 853 397.061 1067 350.939 1280 350.939 C 1493 350.939 1707 397.061 1920 397.061 C 2133 397.061 2347 350.939 2560 350.939" data-idx="190" transform="matrix(1,0,0,1,-1050.453125,0)">
  
  
  
</path><path stroke-width="2" stroke-opacity="0.06818181818181818" stroke="rgb(122, 219, 106)" fill="none" d="M 0 349.506 C 213 349.506 427 398.494 640 398.494 C 853 398.494 1067 349.506 1280 349.506 C 1493 349.506 1707 398.494 1920 398.494 C 2133 398.494 2347 349.506 2560 349.506" data-idx="194" transform="matrix(1,0,0,1,-1057.280029296875,0)">
  
  
  
</path><path stroke-width="2" stroke-opacity="0.09090909090909091" stroke="rgb(121, 214, 109)" fill="none" d="M 0 348.128 C 213 348.128 427 399.872 640 399.872 C 853 399.872 1067 348.128 1280 348.128 C 1493 348.128 1707 399.872 1920 399.872 C 2133 399.872 2347 348.128 2560 348.128" data-idx="198" transform="matrix(1,0,0,1,-1064.1065673828125,0)">
  
  
  
</path><path stroke-width="2" stroke-opacity="0.11363636363636363" stroke="rgb(121, 209, 112)" fill="none" d="M 0 346.805 C 213 346.805 427 401.195 640 401.195 C 853 401.195 1067 346.805 1280 346.805 C 1493 346.805 1707 401.195 1920 401.195 C 2133 401.195 2347 346.805 2560 346.805" data-idx="202" transform="matrix(1,0,0,1,-1070.93310546875,0)">
  
  
  
</path><path stroke-width="2" stroke-opacity="0.13636363636363635" stroke="rgb(120, 204, 116)" fill="none" d="M 0 345.538 C 213 345.538 427 402.462 640 402.462 C 853 402.462 1067 345.538 1280 345.538 C 1493 345.538 1707 402.462 1920 402.462 C 2133 402.462 2347 345.538 2560 345.538" data-idx="206" transform="matrix(1,0,0,1,-1077.760009765625,0)">
  
  
  
</path><path stroke-width="2" stroke-opacity="0.1590909090909091" stroke="rgb(119, 198, 120)" fill="none" d="M 0 344.327 C 213 344.327 427 403.673 640 403.673 C 853 403.673 1067 344.327 1280 344.327 C 1493 344.327 1707 403.673 1920 403.673 C 2133 403.673 2347 344.327 2560 344.327" data-idx="210" transform="matrix(1,0,0,1,-1084.5865478515625,0)">
  
  
  
</path><path stroke-width="2" stroke-opacity="0.18181818181818182" stroke="rgb(117, 192, 124)" fill="none" d="M 0 343.172 C 213 343.172 427 404.828 640 404.828 C 853 404.828 1067 343.172 1280 343.172 C 1493 343.172 1707 404.828 1920 404.828 C 2133 404.828 2347 343.172 2560 343.172" data-idx="214" transform="matrix(1,0,0,1,-1091.4130859375,0)">
  
  
  
</path><path stroke-width="2" stroke-opacity="0.20454545454545456" stroke="rgb(116, 186, 128)" fill="none" d="M 0 342.071 C 213 342.071 427 405.929 640 405.929 C 853 405.929 1067 342.071 1280 342.071 C 1493 342.071 1707 405.929 1920 405.929 C 2133 405.929 2347 342.071 2560 342.071" data-idx="218" transform="matrix(1,0,0,1,-1098.239990234375,0)">
  
  
  
</path><path stroke-width="2" stroke-opacity="0.22727272727272727" stroke="rgb(115, 179, 132)" fill="none" d="M 0 341.026 C 213 341.026 427 406.974 640 406.974 C 853 406.974 1067 341.026 1280 341.026 C 1493 341.026 1707 406.974 1920 406.974 C 2133 406.974 2347 341.026 2560 341.026" data-idx="222" transform="matrix(1,0,0,1,-1105.0665283203125,0)">
  
  
  
</path><path stroke-width="2" stroke-opacity="0.25" stroke="rgb(114, 172, 137)" fill="none" d="M 0 340.034 C 213 340.034 427 407.966 640 407.966 C 853 407.966 1067 340.034 1280 340.034 C 1493 340.034 1707 407.966 1920 407.966 C 2133 407.966 2347 340.034 2560 340.034" data-idx="226" transform="matrix(1,0,0,1,-1111.8931884765625,0)">
  
  
  
</path><path stroke-width="2" stroke-opacity="0.2727272727272727" stroke="rgb(113, 165, 142)" fill="none" d="M 0 339.095 C 213 339.095 427 408.905 640 408.905 C 853 408.905 1067 339.095 1280 339.095 C 1493 339.095 1707 408.905 1920 408.905 C 2133 408.905 2347 339.095 2560 339.095" data-idx="230" transform="matrix(1,0,0,1,-1118.719970703125,0)">
  
  
  
</path><path stroke-width="2" stroke-opacity="0.29545454545454547" stroke="rgb(111, 158, 146)" fill="none" d="M 0 338.208 C 213 338.208 427 409.792 640 409.792 C 853 409.792 1067 338.208 1280 338.208 C 1493 338.208 1707 409.792 1920 409.792 C 2133 409.792 2347 338.208 2560 338.208" data-idx="234" transform="matrix(1,0,0,1,-1125.546630859375,0)">
  
  
  
</path><path stroke-width="2" stroke-opacity="0.3181818181818182" stroke="rgb(110, 151, 151)" fill="none" d="M 0 337.371 C 213 337.371 427 410.629 640 410.629 C 853 410.629 1067 337.371 1280 337.371 C 1493 337.371 1707 410.629 1920 410.629 C 2133 410.629 2347 337.371 2560 337.371" data-idx="238" transform="matrix(1,0,0,1,-1132.3731689453125,0)">
  
  
  
</path><path stroke-width="2" stroke-opacity="0.3409090909090909" stroke="rgb(109, 145, 155)" fill="none" d="M 0 336.585 C 213 336.585 427 411.415 640 411.415 C 853 411.415 1067 336.585 1280 336.585 C 1493 336.585 1707 411.415 1920 411.415 C 2133 411.415 2347 336.585 2560 336.585" data-idx="242" transform="matrix(1,0,0,1,-1139.199951171875,0)">
  
  
  
</path><path stroke-width="2" stroke-opacity="0.36363636363636365" stroke="rgb(108, 138, 160)" fill="none" d="M 0 335.847 C 213 335.847 427 412.153 640 412.153 C 853 412.153 1067 335.847 1280 335.847 C 1493 335.847 1707 412.153 1920 412.153 C 2133 412.153 2347 335.847 2560 335.847" data-idx="246" transform="matrix(1,0,0,1,-1146.0264892578125,0)">
  
  
  
</path><path stroke-width="2" stroke-opacity="0.38636363636363635" stroke="rgb(107, 132, 164)" fill="none" d="M 0 335.156 C 213 335.156 427 412.844 640 412.844 C 853 412.844 1067 335.156 1280 335.156 C 1493 335.156 1707 412.844 1920 412.844 C 2133 412.844 2347 335.156 2560 335.156" data-idx="250" transform="matrix(1,0,0,1,-1152.85302734375,0)">
  
  
  
</path><path stroke-width="2" stroke-opacity="0.4090909090909091" stroke="rgb(106, 126, 168)" fill="none" d="M 0 334.512 C 213 334.512 427 413.488 640 413.488 C 853 413.488 1067 334.512 1280 334.512 C 1493 334.512 1707 413.488 1920 413.488 C 2133 413.488 2347 334.512 2560 334.512" data-idx="254" transform="matrix(1,0,0,1,-1159.6800537109375,0)">
  
  
  
</path><path stroke-width="2" stroke-opacity="0.4318181818181818" stroke="rgb(105, 121, 171)" fill="none" d="M 0 333.912 C 213 333.912 427 414.088 640 414.088 C 853 414.088 1067 333.912 1280 333.912 C 1493 333.912 1707 414.088 1920 414.088 C 2133 414.088 2347 333.912 2560 333.912" data-idx="258" transform="matrix(1,0,0,1,-1166.506591796875,0)">
  
  
  
</path><path stroke-width="2" stroke-opacity="0.45454545454545453" stroke="rgb(104, 115, 175)" fill="none" d="M 0 333.357 C 213 333.357 427 414.643 640 414.643 C 853 414.643 1067 333.357 1280 333.357 C 1493 333.357 1707 414.643 1920 414.643 C 2133 414.643 2347 333.357 2560 333.357" data-idx="262" transform="matrix(1,0,0,1,-1173.3331298828125,0)">
  
  
  
</path><path stroke-width="2" stroke-opacity="0.4772727272727273" stroke="rgb(103, 111, 178)" fill="none" d="M 0 332.844 C 213 332.844 427 415.156 640 415.156 C 853 415.156 1067 332.844 1280 332.844 C 1493 332.844 1707 415.156 1920 415.156 C 2133 415.156 2347 332.844 2560 332.844" data-idx="266" transform="matrix(1,0,0,1,-1180.1600341796875,0)">
  
  
  
</path><path stroke-width="2" stroke-opacity="0.5" stroke="rgb(102, 106, 181)" fill="none" d="M 0 332.372 C 213 332.372 427 415.628 640 415.628 C 853 415.628 1067 332.372 1280 332.372 C 1493 332.372 1707 415.628 1920 415.628 C 2133 415.628 2347 332.372 2560 332.372" data-idx="270" transform="matrix(1,0,0,1,-1186.986572265625,0)">
  
  
  
</path><path stroke-width="2" stroke-opacity="0.5227272727272727" stroke="rgb(102, 103, 183)" fill="none" d="M 0 331.94 C 213 331.94 427 416.06 640 416.06 C 853 416.06 1067 331.94 1280 331.94 C 1493 331.94 1707 416.06 1920 416.06 C 2133 416.06 2347 331.94 2560 331.94" data-idx="274" transform="matrix(1,0,0,1,-1193.8131103515625,0)">
  
  
  
</path><path stroke-width="2" stroke-opacity="0.5454545454545454" stroke="rgb(101, 99, 186)" fill="none" d="M 0 331.548 C 213 331.548 427 416.452 640 416.452 C 853 416.452 1067 331.548 1280 331.548 C 1493 331.548 1707 416.452 1920 416.452 C 2133 416.452 2347 331.548 2560 331.548" data-idx="278" transform="matrix(1,0,0,1,-1200.6400146484375,0)">
  
  
  
</path><path stroke-width="2" stroke-opacity="0.5681818181818182" stroke="rgb(100, 96, 188)" fill="none" d="M 0 331.193 C 213 331.193 427 416.807 640 416.807 C 853 416.807 1067 331.193 1280 331.193 C 1493 331.193 1707 416.807 1920 416.807 C 2133 416.807 2347 331.193 2560 331.193" data-idx="282" transform="matrix(1,0,0,1,-1207.466552734375,0)">
  
  
  
</path><path stroke-width="2" stroke-opacity="0.5909090909090909" stroke="rgb(100, 93, 190)" fill="none" d="M 0 330.875 C 213 330.875 427 417.125 640 417.125 C 853 417.125 1067 330.875 1280 330.875 C 1493 330.875 1707 417.125 1920 417.125 C 2133 417.125 2347 330.875 2560 330.875" data-idx="286" transform="matrix(1,0,0,1,-1214.2930908203125,0)">
  
  
  
</path><path stroke-width="2" stroke-opacity="0.6136363636363636" stroke="rgb(100, 91, 191)" fill="none" d="M 0 330.593 C 213 330.593 427 417.407 640 417.407 C 853 417.407 1067 330.593 1280 330.593 C 1493 330.593 1707 417.407 1920 417.407 C 2133 417.407 2347 330.593 2560 330.593" data-idx="290" transform="matrix(1,0,0,1,-1221.1199951171875,0)">
  
  
  
</path><path stroke-width="2" stroke-opacity="0.6363636363636364" stroke="rgb(99, 89, 193)" fill="none" d="M 0 330.346 C 213 330.346 427 417.654 640 417.654 C 853 417.654 1067 330.346 1280 330.346 C 1493 330.346 1707 417.654 1920 417.654 C 2133 417.654 2347 330.346 2560 330.346" data-idx="294" transform="matrix(1,0,0,1,-1227.946533203125,0)">
  
  
  
</path><path stroke-width="2" stroke-opacity="0.6590909090909091" stroke="rgb(99, 87, 194)" fill="none" d="M 0 330.132 C 213 330.132 427 417.868 640 417.868 C 853 417.868 1067 330.132 1280 330.132 C 1493 330.132 1707 417.868 1920 417.868 C 2133 417.868 2347 330.132 2560 330.132" data-idx="298" transform="matrix(1,0,0,1,-1234.7730712890625,0)">
  
  
  
</path><g data-idx="302"></g></g><text data-watermark="true" text-anchor="middle" dominant-baseline="middle" stroke-opacity="0.1" fill="black" fill-opacity="0.1" stroke="white" stroke-width="1" font-size="15.0" x="640.0" y="296.5" data-idx="303" style="opacity: 1; font-size: 15px;">LOADING.IO</text></svg>