<svg xmlns="http://www.w3.org/2000/svg" viewBox="0 0 1280 593" preserveAspectRatio="xMidYMid" width="1280" height="593" style="shape-rendering: auto; display: block; background: rgb(255, 255, 255);"><g data-idx="1"><linearGradient y2="0" y1="0" x2="1" x1="0" id="lg-nq4q5u6dq7r" data-idx="2">
  <stop offset="0" stop-color="#ff00ff" data-idx="3"></stop>
  <stop offset="1" stop-color="#00ffff" data-idx="4"></stop>
</linearGradient><path opacity="0.4" fill="url(#lg-nq4q5u6dq7r)" d="M 0 0 L 0 338.262 Q 128 410.564 256 368.868 T 512 266.667 T 768 282.038 T 1024 255.06 T 1280 148.625 L 1280 0 Z" data-idx="5">
  
</path><path opacity="0.4" fill="url(#lg-nq4q5u6dq7r)" d="M 0 0 L 0 352.188 Q 128 380.673 256 357.438 T 512 338.988 T 768 311.914 T 1024 215.233 T 1280 180.484 L 1280 0 Z" data-idx="7">
  
</path><path opacity="0.4" fill="url(#lg-nq4q5u6dq7r)" d="M 0 0 L 0 423.849 Q 128 400.163 256 366.956 T 512 311.417 T 768 320.771 T 1024 221.288 T 1280 183.187 L 1280 0 Z" data-idx="9">
  
</path><path opacity="0.4" fill="url(#lg-nq4q5u6dq7r)" d="M 0 0 L 0 369.808 Q 128 367.921 256 333.542 T 512 287.068 T 768 313.852 T 1024 231.311 T 1280 232.928 L 1280 0 Z" data-idx="11">
  
</path><path opacity="0.4" fill="url(#lg-nq4q5u6dq7r)" d="M 0 0 L 0 418.605 Q 128 420.492 256 381.508 T 512 277.439 T 768 236.04 T 1024 237.154 T 1280 200.92 L 1280 0 Z" data-idx="13">
  
</path><g data-idx="15"></g></g><text data-watermark="true" text-anchor="middle" dominant-baseline="middle" stroke-opacity="0.1" fill="black" fill-opacity="0.1" stroke="white" stroke-width="1" font-size="15.0" x="640.0" y="296.5" data-idx="16" style="opacity: 1; font-size: 15px;">LOADING.IO</text></svg>